<?xml version="1.0" encoding="UTF-8"?>
<svg id="Layer_1" xmlns="http://www.w3.org/2000/svg" version="1.1" viewBox="0 0 4000 2800">
  <!-- Generator: Adobe Illustrator 29.5.1, SVG Export Plug-In . SVG Version: 2.1.0 Build 141)  -->
  <defs>
    <style>
      .st0 {
        fill: #fde200;
      }

      .st1 {
        fill: #df330e;
      }

      .st2 {
        fill: #1b68af;
      }

      .st3 {
        fill: #fc6a04;
      }

      .st4 {
        fill: #fafafb;
      }

      .st5 {
        fill: #ca6f04;
      }

      .st6 {
        fill: #c8260b;
      }

      .st7 {
        fill: #154f96;
      }

      .st8 {
        fill: #fd511c;
      }

      .st9 {
        fill: #f59618;
      }

      .st10 {
        fill: #fbe7c7;
      }

      .st11 {
        fill: #84b6d3;
      }

      .st12 {
        fill: #d9e7f4;
      }

      .st13 {
        fill: #fab23f;
      }

      .st14 {
        fill: #083f80;
      }

      .st15 {
        fill: #e48510;
      }

      .st16 {
        fill: #60c8ed;
      }
    </style>
  </defs>
  <g id="Generative_Object">
    <path class="st8" d="M3570.2,527.3c-6.8,6-11.7,15.8-17.8,22.2-77.4,81.8-159.9,161.8-235.8,244.7s-5.3-.6-4.4,4.4c-53.8-62.1-109.4-124.2-146.8-198,7.9-20.1,360.1-103.6,404.9-73.4Z"/>
    <path class="st6" d="M3312.1,798.7c-.8-5,4.2-4.2,4.4-4.4,20.4,14.4,50.8,80.7,75.6,60.1,10-8.3,114.8-199.5,129-226.9,12.3-23.6,26.6-51.5,31.1-77.9,6.1-6.5,11-16.3,17.8-22.2,23.6,23.5-46.5,236.4-62.3,273.6-8.7,20.5-59.3,130.3-77.9,126.8-14.5-2.8-102.1-110.8-117.9-129Z"/>
    <path class="st1" d="M3316.6,794.3c75.9-82.9,158.4-162.9,235.8-244.7-4.5,26.4-18.9,54.3-31.1,77.9-14.2,27.4-119,218.6-129,226.9-24.8,20.6-55.2-45.7-75.6-60.1Z"/>
    <path class="st11" d="M3444.5,933.3c-3.9,14.8-74.3,108.5-89,126.8-89.3,111.5-202.3,203.6-329.2,269.2-36.3,18.8-81.9,37.8-120.1,53.4-42.2,17.2-87.3,31.9-131.3,44.5s-1.8,8.8-2.2,8.9c-3.2.9-52.8,9.3-55.6,8.9s-19.1-12.6-20-13.3c-2.1-1.7-26.4-37.7-31.1-44.5,199.6-73.4,460.4-153.4,596.2-327,43.1-55.1,67.7-124,115.7-175.7,20.3,17.9,43.9,34.4,66.7,48.9Z"/>
    <path class="st2" d="M3026.3,1329.3c11,144.2-84,213.7-193.5,280.3-36.8,22.4-158.6,91.6-193.5,102.3-2.6.8-22.9,5.1-22.2-2.2,11.1-9.1,17.6-22.8,26.7-33.4s10.8-5.5,17.8-13.3c30.9-23.3,70.1-51.2,93.4-82.3,32-42.6,42.2-109.4,66.7-142.4,18.9-25.4,62.1-35.1,84.5-55.6,38.2-15.6,83.8-34.6,120.1-53.4Z"/>
    <path class="st2" d="M2670.3,924.4c8.7.5,13.8-.3,8.9,11.1-7.3,17-44.5,56.4-57.8,73.4-13.4,17.1-88.5,121.3-95.7,124.6-13.6,6.2-37.5,1.6-44.5,4.4-57.9,23.6-119,62.1-153.5,115.7-11.4,8.9-22,14.9-31.1,26.7-11.6,1.3-49.7,47-44.5,11.1,1.6-10.9,105.2-163.5,120.1-184.6,18.2-25.7,37.7-62.1,57.8-84.5,84.6-94.4,134.9-75,240.3-97.9Z"/>
    <path class="st7" d="M3444.5,933.3c-22.9-14.6-46.5-31-66.7-48.9-89-78.5-172.1-184.9-235.8-284.8.9-.2,12.6-7.1,15.6-8.9,86,119.1,176.1,237.8,291.4,331.5,1.5,5-3.2,6.3-4.4,11.1Z"/>
    <path class="st13" d="M2430.1,1022.3c-20.1,22.4-39.7,58.9-57.8,84.5l17.8-133.5c13.5,13.5,32.3,31.5,40,48.9Z"/>
    <path class="st4" d="M2527.9,1302.6c-165,82.5-256.8,240.7-320.3,407.1l91.2-24.5c118.7-51.9,234.9-106.3,313.7-213.6,2.5,15.7-17.6,39.5-26.7,51.2-92.8,118.7-249.3,236.9-373.7,322.6-64.8,44.6-141.6,92.6-209.1,133.5-21.8,13.2-44.8,27.2-66.7,40-7.4,4.3-15.1,9.2-22.2,13.3-73.2,42.2-151.2,80.3-226.9,117.9,274.4-286,491.6-648.4,836.5-856.5,1.1,1.3,3.4,7.5,4.4,8.9Z"/>
    <path class="st9" d="M2212,1845.4c271.7,231.8-188.1,514.8-298.1,186.9,7.2-4.1,14.8-9,22.2-13.3,83.3,283.8,460.5,99.5,278.1-133.5,21.3,74.4,38.7,143.6-20,206.9-100,107.8-220.2,14.7-191.3-113.5,67.5-40.9,144.3-88.9,209.1-133.5Z"/>
    <path class="st3" d="M2550.2,1324.8c-116.5,35.8-181.7,150.1-213.6,260.3,123.7-9,227.1-73.3,293.7-175.7,5.7,4.7,8.5,8.5,13.3,13.3-11.9,15.2-19.8,33.4-31.1,48.9-78.8,107.2-194.9,161.7-313.7,213.6l-91.2,24.5c63.5-166.4,155.4-324.6,320.3-407.1,2.7,3.5,11.3,6.8,22.2,22.2Z"/>
    <path class="st7" d="M2665.9,1387.1c4.7,6.8,29.1,42.7,31.1,44.5-3.5,10.4-28.3,11.5-31.1,13.3-4-10.4-15.1-15.1-22.2-22.2s-7.6-8.7-13.3-13.3c-9.4-7.7-16.9-28.5-33.4-26.7-6.9.7-109.5,87.3-117.9,69l89-106.8c.9-9.8-14.7-15.7-17.8-20-11-15.4-19.5-18.8-22.2-22.2-1.1-1.4-3.4-7.6-4.4-8.9-39.5-49.7-16.4-23.5,0-48.9l73.4,71.2c59.9-57.9,125.2-127.7,198-169.1-63.7,62.6-146.2,112.2-204.7,180.2-9.3,10.8-60.1,70.9-37.8,77.9,19.9,6.2,257.6-245.3,295.9-271.4-26.3,98.5-131.9,161.7-209.1,220.2-1.2,5.7,21.7,26.2,26.7,33.4Z"/>
    <path class="st14" d="M2519,1200.3c-41.2-25.6-155.1,25-191.3,53.4,34.5-53.6,95.6-92.1,153.5-115.7,7-2.9,30.9,1.8,44.5-4.4s82.2-107.5,95.7-124.6l-102.3,191.3Z"/>
    <path class="st2" d="M2848.3,1133.5c-38.2,26.1-275.9,277.7-295.9,271.4-22.3-7,28.5-67.1,37.8-77.9,58.4-67.9,141-117.6,204.7-180.2,19.5-11.1,41.2-18.7,60.1-31.1,9.3,11.3-6.4,16.9-6.7,17.8Z"/>
    <path class="st14" d="M2906.1,1382.7c-22.5,20.5-65.6,30.2-84.5,55.6-24.5,33-34.7,99.7-66.7,142.4-23.3,31.1-62.6,59-93.4,82.3,59.4-66.4,122.9-129.3,111.2-226.9.4-.1-1.6-7.8,2.2-8.9,43.9-12.6,89-27.3,131.3-44.5Z"/>
    <g>
      <path class="st10" d="M2390,973.4l-17.8,133.5c-15,21.2-118.5,173.7-120.1,184.6-5.2,35.8,32.9-9.8,44.5-11.1-29.6,38.4-61.2,118.9-93.4,166.8-228.7,340-709.5,691.9-1105.6,798.6-38.9,10.5-179,43.5-211.3,40s-157-188.4-178-229.1c-406.3-787.9,338.7-1649.3,1176.8-1412.6,211.6,59.7,354.3,177.9,505,329.2Z"/>
      <path class="st9" d="M866.1,1360.4c80.7-16.4,95.9,98.4,31.1,111.2-82.3,16.3-89.4-99.4-31.1-111.2Z"/>
      <path class="st15" d="M1720.4,995.6c68.8-11.2,91.7,94.2,22.2,102.3-72.4,8.5-78.6-93.2-22.2-102.3Z"/>
      <path class="st15" d="M2058.5,1364.9c91.3-16.6,70,129.1-8.9,93.4s-33.6-85.7,8.9-93.4Z"/>
      <path class="st9" d="M1506.8,1903.3c59-10.6,62.6,69.7,22.2,80.1-66.8,17.2-70.3-71.4-22.2-80.1Z"/>
      <path class="st9" d="M1186.5,768.7c65-14.1,65,85.3,0,71.2-33.4-7.3-33.4-63.9,0-71.2Z"/>
      <path class="st9" d="M888.4,1080.1c54.9-2.7,37.6,97.3-17.8,66.7-29.8-16.4-11.2-65.3,17.8-66.7Z"/>
      <path class="st9" d="M692.6,1427.2c54.7-16.8,65.2,60,22.2,66.7-42.9,6.7-54.7-56.7-22.2-66.7Z"/>
      <path class="st15" d="M1417.9,661.9c56.2-8.8,39.2,84.8-8.9,62.3-30.9-14.5-17.3-58.2,8.9-62.3Z"/>
      <path class="st9" d="M981.8,862.1c58.2-19.8,47.1,73.6,0,48.9-18.8-9.8-18.5-42.7,0-48.9Z"/>
      <path class="st15" d="M2000.7,786.5c44.1-11.8,44.1,65.1,0,53.4-20.5-5.5-20.5-47.9,0-53.4Z"/>
      <path class="st9" d="M710.4,1654.1c38.1-12,47.6,40.7,22.2,48.9-37.1,12.1-51-39.8-22.2-48.9Z"/>
      <g>
        <path class="st9" d="M1008.5,1654.1c306-41,341.2,399.3,71.2,431.6-304.8,36.5-334.5-396.3-71.2-431.6Z"/>
        <path class="st5" d="M995.2,1680.8c34.5-2.6,74.3,8.6,104.6,24.5-149,23.4-234.5,199-122.4,313.7l-4.4,8.9c-152.1-54.1-155.3-333.9,22.2-347Z"/>
      </g>
      <g>
        <path class="st9" d="M1609.2,1373.8c180.8-14.2,274,239.7,111.2,329.2-244.6,134.5-378-308.3-111.2-329.2Z"/>
        <path class="st5" d="M1627,1409.4c53.3-1.4,119.7,29.7,135.7,82.3-90.8-123.3-254.1-27.4-235.8,106.8,2.7,19.9,24.9,40.8,20,60.1-120.7-76.8-56-245.5,80.1-249.2Z"/>
      </g>
      <g>
        <path class="st9" d="M1195.4,928.9c266-34.6,270,374.4,4.4,342.6-191.7-23-195.5-317.7-4.4-342.6Z"/>
        <path class="st5" d="M1190.9,955.6c38.7-6.3,82.9,5.4,113.5,28.9-71.4-.7-155.3,41.1-173.5,115.7-8.7,35.6.6,66.1-2.2,100.1-71.2-67.8-36.5-228.6,62.3-244.7Z"/>
      </g>
      <g>
        <path class="st9" d="M2094.1,942.2c220.6-27.7,239.2,302.1,35.6,311.4-203,9.3-221-288.2-35.6-311.4Z"/>
        <path class="st5" d="M2098.6,964.5c28.1-2.2,79.2,12.8,100.1,33.4-75.8-29.8-170.3,26.1-178,106.8-3.1,32.5,13.5,49.9,11.1,77.9-85.3-64.8-36.3-209.9,66.7-218Z"/>
      </g>
      <g>
        <path class="st9" d="M1618.1,737.5c152.5-24.6,187.1,186.3,53.4,209.1-153.2,26.1-180.6-188.6-53.4-209.1Z"/>
        <path class="st15" d="M1631.4,750.9c21.5-3.1,54.9,2.8,69,20-66.5-14.7-105.9,16.8-135.7,73.4-16.5-38.8,33.7-88.7,66.7-93.4Z"/>
      </g>
    </g>
    <path class="st5" d="M1936.2,2018.9c21.9-12.8,44.9-26.8,66.7-40-28.9,128.1,91.3,221.3,191.3,113.5,58.7-63.3,41.3-132.5,20-206.9,182.4,233-194.8,417.3-278.1,133.5Z"/>
    <path class="st0" d="M2550.2,1324.8c3.1,4.3,18.7,10.2,17.8,20l-89,106.8c8.4,18.3,111-68.2,117.9-69,16.5-1.8,23.9,19,33.4,26.7-66.6,102.4-170,166.7-293.7,175.7,31.8-110.1,97.1-224.5,213.6-260.3Z"/>
    <g>
      <path class="st13" d="M2519,1200.3c1.2.7,7.5,21.5,13.3,24.5.3,4-6.3,15.9-8.9,20-16.4,25.5-39.5-.7,0,48.9-344.9,208.1-562.1,570.5-836.5,856.5,75.7-37.6,153.7-75.7,226.9-117.9,110,327.9,569.8,44.9,298.1-186.9,124.4-85.6,281-203.9,373.7-322.6,9.1-11.7,29.2-35.5,26.7-51.2,11.4-15.5,19.2-33.7,31.1-48.9,7.2,7.2,18.2,11.8,22.2,22.2-5.4,3.6-13,5.7-13.3,6.7-14.3,35.4,13.9,175.8-8.9,224.7-9.1,10.6-15.5,24.3-26.7,33.4-.6,7.3,19.6,3,22.2,2.2-100.4,794.9-1048.4,1176.9-1675.1,658.5-24.6-20.4-68.9-56.1-77.9-84.5,32.4,3.5,172.4-29.6,211.3-40,396.1-106.7,877-458.7,1105.6-798.6,32.3-48,63.8-128.5,93.4-166.8,9.1-11.8,19.8-17.8,31.1-26.7,36.3-28.4,150.1-79,191.3-53.4Z"/>
      <path class="st5" d="M1711.5,2201.3c79.6-16.1,89.8,94.6,31.1,106.8-82.1,17-88.6-95.1-31.1-106.8Z"/>
      <path class="st5" d="M2459,1720.8c64.3-17.9,61.4,63.6,26.7,71.2-51.4,11.2-62.1-61.3-26.7-71.2Z"/>
      <path class="st5" d="M2058.5,2290.3c43.7-16.6,66.3,63.6,22.2,71.2-39.1,6.7-54.8-58.8-22.2-71.2Z"/>
      <g>
        <path class="st9" d="M1471.2,2352.6c89.8-19,113.2,96.2,48.9,120.1-102.7,38.3-123.3-104.4-48.9-120.1Z"/>
        <path class="st5" d="M1466.8,2379.3l13.3,84.5c-47.1-7.7-55.5-62.6-13.3-84.5Z"/>
      </g>
      <g>
        <path class="st9" d="M1035.2,2277c68.9-20.9,71.7,85.8,4.4,71.2-33.6-7.3-31-63.1-4.4-71.2Z"/>
        <path class="st5" d="M1035.2,2299.2l4.4,31.1c-19.7-5.4-17.6-18.7-4.4-31.1Z"/>
      </g>
    </g>
    <g>
      <path class="st12" d="M3141.9,599.6c63.7,99.8,146.8,206.2,235.8,284.8-48,51.7-72.6,120.7-115.7,175.7-135.8,173.6-396.6,253.6-596.2,327-4.9-7.1-27.9-27.7-26.7-33.4,77.2-58.5,182.8-121.8,209.1-220.2.2-.9,16-6.5,6.7-17.8-18.9,12.5-40.6,20-60.1,31.1-72.8,41.4-138.1,111.1-198,169.1l-73.4-71.2c2.6-4.1,9.2-16.1,8.9-20-5.9-3-12.2-23.7-13.3-24.5l102.3-191.3c13.4-17,50.5-56.4,57.8-73.4,4.9-11.4-.2-10.6-8.9-11.1,33.1-7.2,105.3-103,140.2-133.5,69.4-60.7,243.3-171,331.5-191.3Z"/>
      <g>
        <path class="st7" d="M3032.9,795.4c207.5-27.8,258.4,267.9,75.6,311.4-223.1,53.2-282.1-283.8-75.6-311.4Z"/>
        <path class="st16" d="M2964,1035.6l209.1-146.8c85,143-108.4,266-209.1,146.8Z"/>
        <g>
          <path class="st16" d="M3173.1,888.8l-209.1,146.8c-121.1-143.3,114-306.9,209.1-146.8Z"/>
          <path class="st4" d="M3055.2,862.1c22.7-2.1,48.4,1.5,64.5,20l-157.9,77.9c-15.6-52.4,50-93.8,93.4-97.9Z"/>
        </g>
      </g>
    </g>
  </g>
</svg>